<svg xmlns="http://www.w3.org/2000/svg" viewBox="0 0 800 900" width="800" height="900">
<defs>
  <radialGradient id="bgGlow" cx="50%" cy="38%" r="62%">
    <stop offset="0%" stop-color="rgb(230,198,125)" stop-opacity="0.30"/>
    <stop offset="100%" stop-color="#0b0907" stop-opacity="0"/>
  </radialGradient>
  <radialGradient id="plateGrad" cx="42%" cy="34%" r="72%">
    <stop offset="0%" stop-color="#2b211a"/>
    <stop offset="100%" stop-color="#1a1410"/>
  </radialGradient>
  <radialGradient id="foodGlow" cx="50%" cy="45%" r="55%">
    <stop offset="0%" stop-color="#e6c67d" stop-opacity="0.22"/>
    <stop offset="100%" stop-color="#e6c67d" stop-opacity="0"/>
  </radialGradient>
  <linearGradient id="rimGrad" x1="0" y1="0" x2="1" y2="1">
    <stop offset="0%" stop-color="#e6c67d"/>
    <stop offset="45%" stop-color="#c89b4c"/>
    <stop offset="100%" stop-color="#7d5f2b"/>
  </linearGradient>
  <filter id="soft" x="-30%" y="-30%" width="160%" height="160%">
    <feGaussianBlur stdDeviation="9"/>
  </filter>
  <filter id="soft2" x="-30%" y="-30%" width="160%" height="160%">
    <feGaussianBlur stdDeviation="3"/>
  </filter>
</defs>
<rect width="800" height="900" fill="#0b0907"/>
<rect width="800" height="900" fill="url(#bgGlow)"/>
<ellipse cx="400" cy="770" rx="330" ry="46" fill="#000" opacity="0.55" filter="url(#soft)"/><ellipse cx="400" cy="470" rx="300" ry="258" fill="url(#plateGrad)"/><ellipse cx="400" cy="470" rx="300" ry="258" fill="none" stroke="url(#rimGrad)" stroke-width="5" opacity="0.95"/><ellipse cx="400" cy="478" rx="240" ry="198" fill="#120d0a" opacity="0.85"/><ellipse cx="290" cy="320" rx="150" ry="70" fill="#fff" opacity="0.05" filter="url(#soft)" transform="rotate(-25 290 320)"/><circle cx="400" cy="460" r="220" fill="url(#foodGlow)"/><ellipse cx="400" cy="476" rx="216" ry="168" fill="#efe3c9" opacity="0.95"/><ellipse cx="400" cy="476" rx="216" ry="168" fill="#e7d3ad" opacity="0.5"/><ellipse cx="330" cy="414" rx="86" ry="48" fill="#fbf3e0" opacity="0.5" filter="url(#soft2)"/><path d="M240 400 q 70 -26 150 0 q 60 22 130 2" fill="none" stroke="#dda945" stroke-width="7" opacity="0.5" stroke-linecap="round"/><path d="M240 446 q 70 26 150 0 q 60 -22 130 2" fill="none" stroke="#dda945" stroke-width="7" opacity="0.5" stroke-linecap="round"/><path d="M240 492 q 70 -26 150 0 q 60 22 130 2" fill="none" stroke="#dda945" stroke-width="7" opacity="0.5" stroke-linecap="round"/><path d="M240 538 q 70 26 150 0 q 60 -22 130 2" fill="none" stroke="#dda945" stroke-width="7" opacity="0.5" stroke-linecap="round"/><g transform="rotate(-10 316.0 430.0)"><path d="M383.6 430.0 L378.2 464.4 L330.8 485.3 L278.8 472.3 L236.3 449.1 L245.9 413.2 L276.8 385.3 L330.6 375.4 L369.7 400.3 Z" fill="#c98a3e"/><ellipse cx="302.3" cy="419.0" rx="41.8" ry="22.5" fill="#e0aa5c" opacity="0.85"/><ellipse cx="294.7" cy="413.0" rx="19.8" ry="8.5" fill="#d99a55" opacity="0.55"/></g><g transform="rotate(14 470.0 412.0)"><path d="M531.6 412.0 L519.1 439.1 L480.7 451.8 L435.6 451.2 L410.7 426.2 L411.1 397.9 L436.7 374.1 L481.8 367.9 L528.9 379.5 Z" fill="#c98a3e"/><ellipse cx="457.4" cy="401.9" rx="38.5" ry="20.7" fill="#e0aa5c" opacity="0.85"/><ellipse cx="450.4" cy="396.4" rx="18.2" ry="7.8" fill="#d99a55" opacity="0.55"/></g><g transform="rotate(4 410.0 510.0)"><path d="M483.4 510.0 L476.9 544.7 L426.1 566.6 L365.5 557.8 L338.0 526.2 L338.2 493.8 L369.4 466.5 L422.7 465.4 L482.2 472.5 Z" fill="#c98a3e"/><ellipse cx="394.9" cy="498.6" rx="46.2" ry="23.4" fill="#e0aa5c" opacity="0.85"/><ellipse cx="386.5" cy="492.3" rx="21.8" ry="8.8" fill="#d99a55" opacity="0.55"/></g><g transform="rotate(20 290.0 532.0)"><path d="M356.3 532.0 L341.3 561.2 L301.2 575.0 L255.1 573.0 L233.4 545.9 L238.7 519.4 L260.1 497.0 L300.6 491.3 L341.3 502.8 Z" fill="#c98a3e"/><ellipse cx="278.8" cy="522.8" rx="34.1" ry="18.9" fill="#e0aa5c" opacity="0.85"/><ellipse cx="272.6" cy="517.7" rx="16.1" ry="7.1" fill="#d99a55" opacity="0.55"/></g><g transform="rotate(-18 528.0 514.0)"><path d="M580.2 514.0 L578.2 542.1 L538.0 551.9 L501.7 544.4 L470.1 528.1 L466.2 499.0 L497.2 478.4 L539.1 472.2 L573.2 488.7 Z" fill="#c98a3e"/><ellipse cx="517.2" cy="505.2" rx="33.0" ry="18.0" fill="#e0aa5c" opacity="0.85"/><ellipse cx="511.2" cy="500.4" rx="15.6" ry="6.8" fill="#d99a55" opacity="0.55"/></g><g transform="translate(362.6 346.4) scale(0.81) rotate(207)"><ellipse cx="9.9" cy="-12.6" rx="12" ry="7" fill="#6f8f4a" opacity="0.9" transform="rotate(-52 9.9 -12.6)"/><ellipse cx="15.2" cy="-4.9" rx="12" ry="7" fill="#6f8f4a" opacity="0.9" transform="rotate(-18 15.2 -4.9)"/><ellipse cx="15.2" cy="4.9" rx="12" ry="7" fill="#6f8f4a" opacity="0.9" transform="rotate(18 15.2 4.9)"/><ellipse cx="9.9" cy="12.6" rx="12" ry="7" fill="#6f8f4a" opacity="0.9" transform="rotate(52 9.9 12.6)"/><circle cx="0" cy="0" r="4" fill="#6f8f4a" opacity="0.8"/></g><g transform="translate(268.2 389.5) scale(0.69) rotate(249)"><ellipse cx="9.9" cy="-12.6" rx="12" ry="7" fill="#6f8f4a" opacity="0.9" transform="rotate(-52 9.9 -12.6)"/><ellipse cx="15.2" cy="-4.9" rx="12" ry="7" fill="#6f8f4a" opacity="0.9" transform="rotate(-18 15.2 -4.9)"/><ellipse cx="15.2" cy="4.9" rx="12" ry="7" fill="#6f8f4a" opacity="0.9" transform="rotate(18 15.2 4.9)"/><ellipse cx="9.9" cy="12.6" rx="12" ry="7" fill="#6f8f4a" opacity="0.9" transform="rotate(52 9.9 12.6)"/><circle cx="0" cy="0" r="4" fill="#6f8f4a" opacity="0.8"/></g><g transform="translate(562.3 451.0) scale(0.69) rotate(251)"><ellipse cx="9.9" cy="-12.6" rx="12" ry="7" fill="#6f8f4a" opacity="0.9" transform="rotate(-52 9.9 -12.6)"/><ellipse cx="15.2" cy="-4.9" rx="12" ry="7" fill="#6f8f4a" opacity="0.9" transform="rotate(-18 15.2 -4.9)"/><ellipse cx="15.2" cy="4.9" rx="12" ry="7" fill="#6f8f4a" opacity="0.9" transform="rotate(18 15.2 4.9)"/><ellipse cx="9.9" cy="12.6" rx="12" ry="7" fill="#6f8f4a" opacity="0.9" transform="rotate(52 9.9 12.6)"/><circle cx="0" cy="0" r="4" fill="#6f8f4a" opacity="0.8"/></g><g transform="translate(242.7 589.9) scale(0.63) rotate(355)"><ellipse cx="9.9" cy="-12.6" rx="12" ry="7" fill="#6f8f4a" opacity="0.9" transform="rotate(-52 9.9 -12.6)"/><ellipse cx="15.2" cy="-4.9" rx="12" ry="7" fill="#6f8f4a" opacity="0.9" transform="rotate(-18 15.2 -4.9)"/><ellipse cx="15.2" cy="4.9" rx="12" ry="7" fill="#6f8f4a" opacity="0.9" transform="rotate(18 15.2 4.9)"/><ellipse cx="9.9" cy="12.6" rx="12" ry="7" fill="#6f8f4a" opacity="0.9" transform="rotate(52 9.9 12.6)"/><circle cx="0" cy="0" r="4" fill="#6f8f4a" opacity="0.8"/></g><g transform="translate(535.0 558.0) scale(0.55) rotate(164)"><ellipse cx="9.9" cy="-12.6" rx="12" ry="7" fill="#6f8f4a" opacity="0.9" transform="rotate(-52 9.9 -12.6)"/><ellipse cx="15.2" cy="-4.9" rx="12" ry="7" fill="#6f8f4a" opacity="0.9" transform="rotate(-18 15.2 -4.9)"/><ellipse cx="15.2" cy="4.9" rx="12" ry="7" fill="#6f8f4a" opacity="0.9" transform="rotate(18 15.2 4.9)"/><ellipse cx="9.9" cy="12.6" rx="12" ry="7" fill="#6f8f4a" opacity="0.9" transform="rotate(52 9.9 12.6)"/><circle cx="0" cy="0" r="4" fill="#6f8f4a" opacity="0.8"/></g><g transform="translate(395.0 421.7) scale(0.67) rotate(109)"><ellipse cx="9.9" cy="-12.6" rx="12" ry="7" fill="#6f8f4a" opacity="0.9" transform="rotate(-52 9.9 -12.6)"/><ellipse cx="15.2" cy="-4.9" rx="12" ry="7" fill="#6f8f4a" opacity="0.9" transform="rotate(-18 15.2 -4.9)"/><ellipse cx="15.2" cy="4.9" rx="12" ry="7" fill="#6f8f4a" opacity="0.9" transform="rotate(18 15.2 4.9)"/><ellipse cx="9.9" cy="12.6" rx="12" ry="7" fill="#6f8f4a" opacity="0.9" transform="rotate(52 9.9 12.6)"/><circle cx="0" cy="0" r="4" fill="#6f8f4a" opacity="0.8"/></g><g transform="translate(431.1 526.0) scale(0.74) rotate(290)"><ellipse cx="9.9" cy="-12.6" rx="12" ry="7" fill="#6f8f4a" opacity="0.9" transform="rotate(-52 9.9 -12.6)"/><ellipse cx="15.2" cy="-4.9" rx="12" ry="7" fill="#6f8f4a" opacity="0.9" transform="rotate(-18 15.2 -4.9)"/><ellipse cx="15.2" cy="4.9" rx="12" ry="7" fill="#6f8f4a" opacity="0.9" transform="rotate(18 15.2 4.9)"/><ellipse cx="9.9" cy="12.6" rx="12" ry="7" fill="#6f8f4a" opacity="0.9" transform="rotate(52 9.9 12.6)"/><circle cx="0" cy="0" r="4" fill="#6f8f4a" opacity="0.8"/></g><g transform="rotate(-14 532 352)"><path d="M498 352 q 20 -17 40 -3 q 18 12 30 4" fill="none" stroke="#cc3d3f" stroke-width="11" stroke-linecap="round"/><path d="M498 352 q 8 -12 -6 -16" fill="none" stroke="#6f8f4a" stroke-width="6" stroke-linecap="round"/></g><path d="M326.0 270 c -20 -45 22 -70 2 -115 c -18 -40 16 -60 4 -96" fill="none" stroke="#f3e9d8" stroke-width="7" stroke-linecap="round" opacity="0.18" filter="url(#soft2)"/><path d="M400.0 270 c -20 -45 22 -70 2 -115 c -18 -40 16 -60 4 -96" fill="none" stroke="#f3e9d8" stroke-width="7" stroke-linecap="round" opacity="0.18" filter="url(#soft2)"/><path d="M474.0 270 c -20 -45 22 -70 2 -115 c -18 -40 16 -60 4 -96" fill="none" stroke="#f3e9d8" stroke-width="7" stroke-linecap="round" opacity="0.18" filter="url(#soft2)"/></svg>