<svg xmlns="http://www.w3.org/2000/svg" viewBox="0 0 800 900" width="800" height="900">
<defs>
  <radialGradient id="bgGlow" cx="50%" cy="38%" r="62%">
    <stop offset="0%" stop-color="rgb(230,198,125)" stop-opacity="0.30"/>
    <stop offset="100%" stop-color="#0b0907" stop-opacity="0"/>
  </radialGradient>
  <radialGradient id="plateGrad" cx="42%" cy="34%" r="72%">
    <stop offset="0%" stop-color="#2b211a"/>
    <stop offset="100%" stop-color="#1a1410"/>
  </radialGradient>
  <radialGradient id="foodGlow" cx="50%" cy="45%" r="55%">
    <stop offset="0%" stop-color="#e6c67d" stop-opacity="0.22"/>
    <stop offset="100%" stop-color="#e6c67d" stop-opacity="0"/>
  </radialGradient>
  <linearGradient id="rimGrad" x1="0" y1="0" x2="1" y2="1">
    <stop offset="0%" stop-color="#e6c67d"/>
    <stop offset="45%" stop-color="#c89b4c"/>
    <stop offset="100%" stop-color="#7d5f2b"/>
  </linearGradient>
  <filter id="soft" x="-30%" y="-30%" width="160%" height="160%">
    <feGaussianBlur stdDeviation="9"/>
  </filter>
  <filter id="soft2" x="-30%" y="-30%" width="160%" height="160%">
    <feGaussianBlur stdDeviation="3"/>
  </filter>
</defs>
<rect width="800" height="900" fill="#0b0907"/>
<rect width="800" height="900" fill="url(#bgGlow)"/>
<ellipse cx="400" cy="770" rx="330" ry="46" fill="#000" opacity="0.55" filter="url(#soft)"/><circle cx="400" cy="470" r="300" fill="url(#plateGrad)"/><circle cx="400" cy="470" r="300" fill="none" stroke="url(#rimGrad)" stroke-width="5" opacity="0.95"/><circle cx="400" cy="470" r="258" fill="none" stroke="#c89b4c" stroke-width="1.2" opacity="0.4"/><ellipse cx="290" cy="320" rx="150" ry="70" fill="#fff" opacity="0.05" filter="url(#soft)" transform="rotate(-25 290 320)"/><circle cx="400" cy="460" r="230" fill="url(#foodGlow)"/><g transform="rotate(-10 360 500)"><ellipse cx="360" cy="508" rx="168" ry="134" fill="#000" opacity="0.35" filter="url(#soft2)"/><ellipse cx="360" cy="500" rx="168" ry="134" fill="#e0be7e"/><ellipse cx="347.8" cy="488.1" rx="13.3" ry="12.7" fill="#c99a4e" opacity="0.31"/><ellipse cx="403.6" cy="528.8" rx="11.6" ry="8.0" fill="#efd7a3" opacity="0.42"/><ellipse cx="321.5" cy="396.4" rx="16.8" ry="11.7" fill="#c99a4e" opacity="0.29"/><ellipse cx="381.8" cy="526.8" rx="20.3" ry="12.5" fill="#efd7a3" opacity="0.53"/><ellipse cx="215.3" cy="513.5" rx="12.9" ry="10.1" fill="#a97a37" opacity="0.58"/><ellipse cx="228.6" cy="510.5" rx="13.4" ry="12.1" fill="#efd7a3" opacity="0.53"/><ellipse cx="391.7" cy="458.9" rx="18.3" ry="6.5" fill="#efd7a3" opacity="0.43"/><ellipse cx="253.7" cy="442.7" rx="16.1" ry="5.6" fill="#c99a4e" opacity="0.51"/><ellipse cx="341.3" cy="513.5" rx="15.6" ry="5.9" fill="#efd7a3" opacity="0.39"/><ellipse cx="294.8" cy="451.0" rx="16.6" ry="8.9" fill="#c99a4e" opacity="0.41"/><ellipse cx="293.9" cy="492.9" rx="8.4" ry="10.8" fill="#a97a37" opacity="0.58"/><ellipse cx="350.9" cy="525.7" rx="14.6" ry="10.0" fill="#efd7a3" opacity="0.27"/><ellipse cx="505.9" cy="522.3" rx="14.8" ry="8.4" fill="#efd7a3" opacity="0.43"/><ellipse cx="246.0" cy="512.5" rx="11.7" ry="10.1" fill="#c99a4e" opacity="0.46"/><ellipse cx="379.3" cy="516.5" rx="15.0" ry="5.6" fill="#efd7a3" opacity="0.28"/><ellipse cx="404.9" cy="539.9" rx="11.1" ry="7.1" fill="#a97a37" opacity="0.50"/><ellipse cx="395.1" cy="473.6" rx="19.6" ry="7.0" fill="#a97a37" opacity="0.41"/><ellipse cx="245.9" cy="434.2" rx="8.2" ry="11.6" fill="#a97a37" opacity="0.51"/><ellipse cx="385.6" cy="467.9" rx="20.9" ry="5.5" fill="#c99a4e" opacity="0.37"/><ellipse cx="439.1" cy="454.6" rx="14.8" ry="7.3" fill="#a97a37" opacity="0.30"/><ellipse cx="384.3" cy="604.6" rx="10.2" ry="9.0" fill="#c99a4e" opacity="0.58"/><ellipse cx="421.7" cy="569.7" rx="12.4" ry="11.9" fill="#a97a37" opacity="0.57"/><ellipse cx="425.6" cy="465.3" rx="10.5" ry="6.9" fill="#efd7a3" opacity="0.49"/><ellipse cx="383.6" cy="431.5" rx="14.4" ry="5.9" fill="#a97a37" opacity="0.31"/><ellipse cx="221.3" cy="491.6" rx="11.9" ry="5.9" fill="#c99a4e" opacity="0.60"/><ellipse cx="215.5" cy="494.3" rx="9.5" ry="11.1" fill="#c99a4e" opacity="0.44"/><ellipse cx="400.0" cy="469.2" rx="18.7" ry="6.4" fill="#efd7a3" opacity="0.57"/><ellipse cx="258.1" cy="484.2" rx="11.2" ry="11.1" fill="#a97a37" opacity="0.55"/><ellipse cx="249.4" cy="471.4" rx="12.4" ry="11.0" fill="#a97a37" opacity="0.38"/><ellipse cx="297.4" cy="532.1" rx="11.3" ry="12.6" fill="#a97a37" opacity="0.59"/><ellipse cx="272.4" cy="446.4" rx="21.3" ry="6.7" fill="#a97a37" opacity="0.29"/><ellipse cx="334.8" cy="435.1" rx="15.8" ry="9.1" fill="#efd7a3" opacity="0.33"/><ellipse cx="384.8" cy="580.3" rx="15.3" ry="9.2" fill="#c99a4e" opacity="0.28"/><ellipse cx="349.2" cy="498.0" rx="9.6" ry="9.1" fill="#c99a4e" opacity="0.28"/><ellipse cx="318.1" cy="442.3" rx="10.3" ry="5.1" fill="#c99a4e" opacity="0.35"/><ellipse cx="340.9" cy="459.0" rx="17.7" ry="10.3" fill="#a97a37" opacity="0.55"/><ellipse cx="442.4" cy="536.2" rx="13.6" ry="10.7" fill="#a97a37" opacity="0.41"/><ellipse cx="414.0" cy="473.3" rx="16.9" ry="10.0" fill="#c99a4e" opacity="0.35"/><ellipse cx="278.3" cy="508.4" rx="14.5" ry="5.7" fill="#a97a37" opacity="0.40"/><ellipse cx="247.8" cy="459.2" rx="20.6" ry="11.2" fill="#c99a4e" opacity="0.29"/><ellipse cx="239.1" cy="561.5" rx="14.4" ry="8.3" fill="#c99a4e" opacity="0.42"/><ellipse cx="317.6" cy="557.0" rx="9.4" ry="8.6" fill="#a97a37" opacity="0.36"/><ellipse cx="283.5" cy="535.5" rx="11.0" ry="7.3" fill="#efd7a3" opacity="0.37"/><ellipse cx="393.8" cy="406.9" rx="19.0" ry="6.1" fill="#a97a37" opacity="0.34"/><ellipse cx="399.0" cy="439.5" rx="20.0" ry="6.6" fill="#c99a4e" opacity="0.58"/><ellipse cx="504.2" cy="511.1" rx="15.9" ry="11.6" fill="#c99a4e" opacity="0.31"/><ellipse cx="462.9" cy="441.7" rx="12.1" ry="10.3" fill="#a97a37" opacity="0.28"/><ellipse cx="378.2" cy="500.2" rx="20.7" ry="6.9" fill="#efd7a3" opacity="0.43"/><ellipse cx="417.2" cy="609.2" rx="15.1" ry="12.8" fill="#a97a37" opacity="0.27"/><ellipse cx="462.8" cy="517.1" rx="13.2" ry="10.8" fill="#c99a4e" opacity="0.42"/><ellipse cx="220.9" cy="479.6" rx="20.5" ry="10.0" fill="#efd7a3" opacity="0.53"/><ellipse cx="374.2" cy="482.5" rx="20.3" ry="9.8" fill="#a97a37" opacity="0.42"/><ellipse cx="376.9" cy="441.5" rx="13.2" ry="8.9" fill="#a97a37" opacity="0.34"/><ellipse cx="411.2" cy="430.7" rx="21.7" ry="5.2" fill="#c99a4e" opacity="0.31"/><ellipse cx="290.3" cy="424.5" rx="11.3" ry="8.2" fill="#efd7a3" opacity="0.54"/><ellipse cx="403.4" cy="453.3" rx="9.0" ry="10.6" fill="#efd7a3" opacity="0.58"/><ellipse cx="389.8" cy="421.5" rx="20.7" ry="10.5" fill="#a97a37" opacity="0.26"/><ellipse cx="347.9" cy="417.5" rx="12.5" ry="8.8" fill="#efd7a3" opacity="0.41"/><ellipse cx="327.7" cy="425.3" rx="15.8" ry="7.3" fill="#efd7a3" opacity="0.50"/><ellipse cx="302.3" cy="433.1" rx="8.6" ry="7.1" fill="#efd7a3" opacity="0.49"/><ellipse cx="467.7" cy="443.2" rx="21.2" ry="12.0" fill="#c99a4e" opacity="0.46"/><ellipse cx="495.4" cy="474.4" rx="10.0" ry="12.4" fill="#c99a4e" opacity="0.42"/><ellipse cx="352.0" cy="602.8" rx="16.0" ry="11.3" fill="#a97a37" opacity="0.35"/><ellipse cx="355.7" cy="542.8" rx="8.1" ry="7.3" fill="#a97a37" opacity="0.58"/><ellipse cx="300.0" cy="502.3" rx="14.5" ry="10.1" fill="#c99a4e" opacity="0.29"/><ellipse cx="353.6" cy="592.1" rx="11.6" ry="8.8" fill="#efd7a3" opacity="0.44"/><ellipse cx="433.3" cy="508.0" rx="20.3" ry="8.5" fill="#efd7a3" opacity="0.37"/><ellipse cx="306.9" cy="395.2" rx="14.6" ry="8.3" fill="#c99a4e" opacity="0.45"/><ellipse cx="224.3" cy="495.1" rx="8.1" ry="12.6" fill="#c99a4e" opacity="0.37"/><ellipse cx="373.7" cy="495.4" rx="15.1" ry="5.4" fill="#efd7a3" opacity="0.57"/><ellipse cx="360" cy="500" rx="168" ry="134" fill="none" stroke="#b98c44" stroke-width="4" opacity="0.8"/></g><g transform="rotate(8 434 452)"><ellipse cx="434" cy="460" rx="176" ry="141" fill="#000" opacity="0.35" filter="url(#soft2)"/><ellipse cx="434" cy="452" rx="176" ry="141" fill="#e0be7e"/><ellipse cx="464.7" cy="350.4" rx="21.0" ry="10.4" fill="#a97a37" opacity="0.44"/><ellipse cx="567.5" cy="494.9" rx="13.0" ry="5.8" fill="#c99a4e" opacity="0.58"/><ellipse cx="502.0" cy="450.3" rx="15.3" ry="8.9" fill="#efd7a3" opacity="0.41"/><ellipse cx="387.4" cy="514.9" rx="9.6" ry="7.7" fill="#a97a37" opacity="0.45"/><ellipse cx="491.0" cy="502.6" rx="17.6" ry="10.9" fill="#a97a37" opacity="0.58"/><ellipse cx="537.5" cy="455.1" rx="19.9" ry="9.3" fill="#c99a4e" opacity="0.25"/><ellipse cx="404.1" cy="406.9" rx="18.3" ry="9.4" fill="#a97a37" opacity="0.58"/><ellipse cx="317.8" cy="433.3" rx="13.6" ry="10.0" fill="#a97a37" opacity="0.37"/><ellipse cx="296.3" cy="476.1" rx="12.7" ry="5.6" fill="#efd7a3" opacity="0.41"/><ellipse cx="570.9" cy="428.6" rx="13.7" ry="7.4" fill="#c99a4e" opacity="0.45"/><ellipse cx="423.0" cy="458.9" rx="14.1" ry="7.4" fill="#a97a37" opacity="0.51"/><ellipse cx="579.8" cy="465.7" rx="14.9" ry="8.5" fill="#c99a4e" opacity="0.56"/><ellipse cx="435.7" cy="543.9" rx="8.3" ry="8.8" fill="#c99a4e" opacity="0.58"/><ellipse cx="508.9" cy="428.8" rx="12.1" ry="5.3" fill="#efd7a3" opacity="0.33"/><ellipse cx="452.8" cy="349.1" rx="8.2" ry="10.3" fill="#a97a37" opacity="0.55"/><ellipse cx="444.4" cy="410.8" rx="11.4" ry="7.3" fill="#a97a37" opacity="0.28"/><ellipse cx="407.9" cy="519.2" rx="16.7" ry="12.4" fill="#a97a37" opacity="0.53"/><ellipse cx="522.3" cy="435.5" rx="21.3" ry="10.7" fill="#c99a4e" opacity="0.46"/><ellipse cx="343.7" cy="470.1" rx="9.4" ry="7.2" fill="#a97a37" opacity="0.31"/><ellipse cx="450.5" cy="425.5" rx="15.9" ry="12.5" fill="#efd7a3" opacity="0.44"/><ellipse cx="449.2" cy="374.7" rx="20.1" ry="7.9" fill="#efd7a3" opacity="0.58"/><ellipse cx="387.0" cy="407.3" rx="19.6" ry="9.6" fill="#c99a4e" opacity="0.53"/><ellipse cx="379.3" cy="484.4" rx="12.4" ry="12.5" fill="#c99a4e" opacity="0.52"/><ellipse cx="524.7" cy="461.7" rx="15.3" ry="12.5" fill="#a97a37" opacity="0.25"/><ellipse cx="360.7" cy="424.8" rx="18.9" ry="12.1" fill="#c99a4e" opacity="0.34"/><ellipse cx="556.3" cy="395.8" rx="14.9" ry="9.2" fill="#a97a37" opacity="0.56"/><ellipse cx="429.1" cy="456.9" rx="13.0" ry="9.0" fill="#c99a4e" opacity="0.50"/><ellipse cx="453.6" cy="418.3" rx="12.1" ry="9.0" fill="#a97a37" opacity="0.37"/><ellipse cx="305.0" cy="429.5" rx="12.6" ry="6.8" fill="#c99a4e" opacity="0.37"/><ellipse cx="528.7" cy="522.2" rx="13.5" ry="12.6" fill="#c99a4e" opacity="0.30"/><ellipse cx="458.5" cy="497.1" rx="13.4" ry="8.8" fill="#efd7a3" opacity="0.38"/><ellipse cx="523.7" cy="548.3" rx="10.0" ry="9.0" fill="#efd7a3" opacity="0.50"/><ellipse cx="554.9" cy="429.3" rx="16.9" ry="11.2" fill="#c99a4e" opacity="0.36"/><ellipse cx="336.8" cy="530.0" rx="18.1" ry="10.2" fill="#c99a4e" opacity="0.28"/><ellipse cx="444.5" cy="358.3" rx="8.2" ry="5.8" fill="#c99a4e" opacity="0.42"/><ellipse cx="441.1" cy="424.9" rx="13.8" ry="8.8" fill="#efd7a3" opacity="0.54"/><ellipse cx="508.8" cy="500.7" rx="11.0" ry="11.1" fill="#a97a37" opacity="0.40"/><ellipse cx="469.1" cy="529.5" rx="16.8" ry="9.0" fill="#c99a4e" opacity="0.39"/><ellipse cx="325.1" cy="451.4" rx="19.3" ry="12.1" fill="#a97a37" opacity="0.55"/><ellipse cx="294.3" cy="511.6" rx="21.6" ry="12.5" fill="#a97a37" opacity="0.31"/><ellipse cx="482.4" cy="388.3" rx="15.8" ry="10.3" fill="#a97a37" opacity="0.30"/><ellipse cx="502.2" cy="480.4" rx="18.7" ry="10.0" fill="#efd7a3" opacity="0.54"/><ellipse cx="536.2" cy="433.0" rx="12.0" ry="8.9" fill="#a97a37" opacity="0.36"/><ellipse cx="335.5" cy="500.4" rx="17.2" ry="11.4" fill="#efd7a3" opacity="0.48"/><ellipse cx="490.8" cy="460.6" rx="17.6" ry="12.1" fill="#a97a37" opacity="0.29"/><ellipse cx="372.7" cy="406.1" rx="9.6" ry="10.6" fill="#efd7a3" opacity="0.42"/><ellipse cx="502.8" cy="513.0" rx="19.9" ry="8.0" fill="#a97a37" opacity="0.44"/><ellipse cx="477.4" cy="448.4" rx="21.6" ry="12.8" fill="#efd7a3" opacity="0.38"/><ellipse cx="555.1" cy="380.5" rx="19.9" ry="12.2" fill="#efd7a3" opacity="0.58"/><ellipse cx="525.5" cy="401.4" rx="13.6" ry="9.1" fill="#a97a37" opacity="0.35"/><ellipse cx="425.3" cy="537.9" rx="15.6" ry="11.3" fill="#a97a37" opacity="0.50"/><ellipse cx="502.6" cy="496.5" rx="11.9" ry="6.4" fill="#efd7a3" opacity="0.55"/><ellipse cx="456.7" cy="515.0" rx="19.8" ry="7.2" fill="#efd7a3" opacity="0.49"/><ellipse cx="478.3" cy="489.8" rx="13.1" ry="5.6" fill="#efd7a3" opacity="0.57"/><ellipse cx="338.1" cy="416.8" rx="20.5" ry="7.5" fill="#c99a4e" opacity="0.54"/><ellipse cx="459.1" cy="413.6" rx="20.0" ry="7.0" fill="#efd7a3" opacity="0.28"/><ellipse cx="485.9" cy="338.7" rx="13.0" ry="11.4" fill="#efd7a3" opacity="0.51"/><ellipse cx="452.1" cy="495.4" rx="11.1" ry="10.6" fill="#c99a4e" opacity="0.44"/><ellipse cx="382.3" cy="563.0" rx="19.0" ry="6.6" fill="#a97a37" opacity="0.27"/><ellipse cx="570.9" cy="472.6" rx="19.8" ry="6.9" fill="#efd7a3" opacity="0.42"/><ellipse cx="568.6" cy="405.3" rx="14.1" ry="9.5" fill="#a97a37" opacity="0.39"/><ellipse cx="339.1" cy="402.4" rx="20.8" ry="6.8" fill="#a97a37" opacity="0.47"/><ellipse cx="479.3" cy="446.6" rx="15.9" ry="11.3" fill="#efd7a3" opacity="0.53"/><ellipse cx="499.7" cy="567.0" rx="19.4" ry="12.6" fill="#c99a4e" opacity="0.57"/><ellipse cx="472.8" cy="354.6" rx="13.6" ry="9.3" fill="#c99a4e" opacity="0.38"/><ellipse cx="369.0" cy="486.6" rx="18.9" ry="8.9" fill="#efd7a3" opacity="0.57"/><ellipse cx="512.1" cy="445.3" rx="11.7" ry="11.5" fill="#a97a37" opacity="0.43"/><ellipse cx="423.8" cy="491.7" rx="12.5" ry="8.2" fill="#c99a4e" opacity="0.38"/><ellipse cx="368.0" cy="531.7" rx="17.6" ry="12.6" fill="#a97a37" opacity="0.54"/><ellipse cx="339.6" cy="491.5" rx="11.3" ry="12.8" fill="#efd7a3" opacity="0.26"/><ellipse cx="434" cy="452" rx="176" ry="141" fill="none" stroke="#b98c44" stroke-width="4" opacity="0.8"/></g><ellipse cx="430" cy="430" rx="46" ry="26" fill="#e0a63f" opacity="0.75"/><path d="M360.0 270 c -20 -45 22 -70 2 -115 c -18 -40 16 -60 4 -96" fill="none" stroke="#f3e9d8" stroke-width="7" stroke-linecap="round" opacity="0.14" filter="url(#soft2)"/><path d="M440.0 270 c -20 -45 22 -70 2 -115 c -18 -40 16 -60 4 -96" fill="none" stroke="#f3e9d8" stroke-width="7" stroke-linecap="round" opacity="0.14" filter="url(#soft2)"/></svg>