<svg xmlns="http://www.w3.org/2000/svg" viewBox="0 0 800 900" width="800" height="900">
<defs>
  <radialGradient id="bgGlow" cx="50%" cy="38%" r="62%">
    <stop offset="0%" stop-color="rgb(204,61,63)" stop-opacity="0.30"/>
    <stop offset="100%" stop-color="#0b0907" stop-opacity="0"/>
  </radialGradient>
  <radialGradient id="plateGrad" cx="42%" cy="34%" r="72%">
    <stop offset="0%" stop-color="#2b211a"/>
    <stop offset="100%" stop-color="#1a1410"/>
  </radialGradient>
  <radialGradient id="foodGlow" cx="50%" cy="45%" r="55%">
    <stop offset="0%" stop-color="#e6c67d" stop-opacity="0.22"/>
    <stop offset="100%" stop-color="#e6c67d" stop-opacity="0"/>
  </radialGradient>
  <linearGradient id="rimGrad" x1="0" y1="0" x2="1" y2="1">
    <stop offset="0%" stop-color="#e6c67d"/>
    <stop offset="45%" stop-color="#c89b4c"/>
    <stop offset="100%" stop-color="#7d5f2b"/>
  </linearGradient>
  <filter id="soft" x="-30%" y="-30%" width="160%" height="160%">
    <feGaussianBlur stdDeviation="9"/>
  </filter>
  <filter id="soft2" x="-30%" y="-30%" width="160%" height="160%">
    <feGaussianBlur stdDeviation="3"/>
  </filter>
</defs>
<rect width="800" height="900" fill="#0b0907"/>
<rect width="800" height="900" fill="url(#bgGlow)"/>
<ellipse cx="400" cy="770" rx="330" ry="46" fill="#000" opacity="0.55" filter="url(#soft)"/><circle cx="400" cy="470" r="300" fill="url(#plateGrad)"/><circle cx="400" cy="470" r="300" fill="none" stroke="url(#rimGrad)" stroke-width="5" opacity="0.95"/><circle cx="400" cy="470" r="258" fill="none" stroke="#c89b4c" stroke-width="1.2" opacity="0.4"/><ellipse cx="290" cy="320" rx="150" ry="70" fill="#fff" opacity="0.05" filter="url(#soft)" transform="rotate(-25 290 320)"/><circle cx="400" cy="460" r="220" fill="url(#foodGlow)"/><g transform="rotate(-15 304 476)"><rect x="246.0" y="428.0" width="116" height="116" rx="18" fill="#000" opacity="0.45" filter="url(#soft2)"/><rect x="246.0" y="418.0" width="116" height="116" rx="18" fill="#a0331f"/><rect x="246.0" y="418.0" width="116" height="116" rx="18" fill="url(#foodGlow)" opacity="0.85"/><rect x="255.0" y="427.0" width="58" height="39" rx="12" fill="#e9944a" opacity="0.6"/><rect x="259.0" y="431.0" width="30" height="17" rx="7" fill="#ffd9a6" opacity="0.55"/><rect x="304" y="485" width="42" height="30" rx="10" fill="#6d1f13" opacity="0.45"/><rect x="246.0" y="418.0" width="116" height="116" rx="18" fill="none" stroke="#c89b4c" stroke-width="2.2" opacity="0.6"/><ellipse cx="331.3" cy="492.5" rx="8.1" ry="7.6" fill="#7f9a4e" opacity="0.95" transform="rotate(43 331.3 492.5)"/><ellipse cx="332.3" cy="502.2" rx="9.2" ry="7.8" fill="#7f9a4e" opacity="0.95" transform="rotate(89 332.3 502.2)"/><ellipse cx="287.8" cy="471.0" rx="9.6" ry="7.4" fill="#7f9a4e" opacity="0.95" transform="rotate(171 287.8 471.0)"/><ellipse cx="321.1" cy="441.7" rx="9.4" ry="8.9" fill="#7f9a4e" opacity="0.95" transform="rotate(137 321.1 441.7)"/><ellipse cx="311.9" cy="486.9" rx="10.7" ry="6.5" fill="#7f9a4e" opacity="0.95" transform="rotate(73 311.9 486.9)"/><ellipse cx="287.5" cy="453.1" rx="10.8" ry="6.1" fill="#7f9a4e" opacity="0.95" transform="rotate(32 287.5 453.1)"/></g><g transform="rotate(7 404 500)"><rect x="352.0" y="458.0" width="104" height="104" rx="18" fill="#000" opacity="0.45" filter="url(#soft2)"/><rect x="352.0" y="448.0" width="104" height="104" rx="18" fill="#a0331f"/><rect x="352.0" y="448.0" width="104" height="104" rx="18" fill="url(#foodGlow)" opacity="0.85"/><rect x="361.0" y="457.0" width="52" height="35" rx="12" fill="#e9944a" opacity="0.6"/><rect x="365.0" y="461.0" width="27" height="16" rx="7" fill="#ffd9a6" opacity="0.55"/><rect x="404" y="508" width="37" height="27" rx="10" fill="#6d1f13" opacity="0.45"/><rect x="352.0" y="448.0" width="104" height="104" rx="18" fill="none" stroke="#c89b4c" stroke-width="2.2" opacity="0.6"/><ellipse cx="430.2" cy="486.9" rx="11.4" ry="8.5" fill="#7f9a4e" opacity="0.95" transform="rotate(28 430.2 486.9)"/><ellipse cx="431.6" cy="477.9" rx="9.9" ry="6.3" fill="#7f9a4e" opacity="0.95" transform="rotate(17 431.6 477.9)"/><ellipse cx="414.9" cy="522.6" rx="8.4" ry="7.0" fill="#7f9a4e" opacity="0.95" transform="rotate(110 414.9 522.6)"/><ellipse cx="410.3" cy="476.0" rx="10.8" ry="6.3" fill="#7f9a4e" opacity="0.95" transform="rotate(168 410.3 476.0)"/><ellipse cx="415.1" cy="510.8" rx="11.7" ry="6.7" fill="#7f9a4e" opacity="0.95" transform="rotate(36 415.1 510.8)"/><ellipse cx="412.4" cy="526.2" rx="11.7" ry="8.4" fill="#7f9a4e" opacity="0.95" transform="rotate(108 412.4 526.2)"/></g><g transform="rotate(-4 506 474)"><rect x="448.0" y="426.0" width="116" height="116" rx="18" fill="#000" opacity="0.45" filter="url(#soft2)"/><rect x="448.0" y="416.0" width="116" height="116" rx="18" fill="#a0331f"/><rect x="448.0" y="416.0" width="116" height="116" rx="18" fill="url(#foodGlow)" opacity="0.85"/><rect x="457.0" y="425.0" width="58" height="39" rx="12" fill="#e9944a" opacity="0.6"/><rect x="461.0" y="429.0" width="30" height="17" rx="7" fill="#ffd9a6" opacity="0.55"/><rect x="506" y="483" width="42" height="30" rx="10" fill="#6d1f13" opacity="0.45"/><rect x="448.0" y="416.0" width="116" height="116" rx="18" fill="none" stroke="#c89b4c" stroke-width="2.2" opacity="0.6"/><ellipse cx="527.4" cy="484.1" rx="11.5" ry="8.3" fill="#7f9a4e" opacity="0.95" transform="rotate(88 527.4 484.1)"/><ellipse cx="516.9" cy="452.0" rx="9.1" ry="8.3" fill="#7f9a4e" opacity="0.95" transform="rotate(127 516.9 452.0)"/><ellipse cx="470.9" cy="452.1" rx="9.7" ry="7.7" fill="#7f9a4e" opacity="0.95" transform="rotate(63 470.9 452.1)"/><ellipse cx="496.7" cy="507.1" rx="9.5" ry="7.3" fill="#7f9a4e" opacity="0.95" transform="rotate(169 496.7 507.1)"/><ellipse cx="493.1" cy="476.1" rx="8.7" ry="8.5" fill="#7f9a4e" opacity="0.95" transform="rotate(148 493.1 476.1)"/><ellipse cx="486.5" cy="483.2" rx="9.0" ry="8.5" fill="#7f9a4e" opacity="0.95" transform="rotate(89 486.5 483.2)"/></g><g transform="rotate(-7 350 404)"><rect x="298.0" y="362.0" width="104" height="104" rx="18" fill="#000" opacity="0.45" filter="url(#soft2)"/><rect x="298.0" y="352.0" width="104" height="104" rx="18" fill="#a0331f"/><rect x="298.0" y="352.0" width="104" height="104" rx="18" fill="url(#foodGlow)" opacity="0.85"/><rect x="307.0" y="361.0" width="52" height="35" rx="12" fill="#e9944a" opacity="0.6"/><rect x="311.0" y="365.0" width="27" height="16" rx="7" fill="#ffd9a6" opacity="0.55"/><rect x="350" y="412" width="37" height="27" rx="10" fill="#6d1f13" opacity="0.45"/><rect x="298.0" y="352.0" width="104" height="104" rx="18" fill="none" stroke="#c89b4c" stroke-width="2.2" opacity="0.6"/><ellipse cx="381.4" cy="402.9" rx="10.3" ry="8.9" fill="#7f9a4e" opacity="0.95" transform="rotate(52 381.4 402.9)"/><ellipse cx="346.9" cy="431.1" rx="9.4" ry="8.6" fill="#7f9a4e" opacity="0.95" transform="rotate(112 346.9 431.1)"/><ellipse cx="380.2" cy="409.5" rx="11.6" ry="7.5" fill="#7f9a4e" opacity="0.95" transform="rotate(40 380.2 409.5)"/><ellipse cx="339.8" cy="403.4" rx="10.5" ry="7.4" fill="#7f9a4e" opacity="0.95" transform="rotate(65 339.8 403.4)"/><ellipse cx="334.5" cy="404.6" rx="10.8" ry="7.9" fill="#7f9a4e" opacity="0.95" transform="rotate(6 334.5 404.6)"/><ellipse cx="333.8" cy="415.7" rx="9.9" ry="6.9" fill="#7f9a4e" opacity="0.95" transform="rotate(106 333.8 415.7)"/></g><g transform="rotate(-15 456 408)"><rect x="398.0" y="360.0" width="116" height="116" rx="18" fill="#000" opacity="0.45" filter="url(#soft2)"/><rect x="398.0" y="350.0" width="116" height="116" rx="18" fill="#a0331f"/><rect x="398.0" y="350.0" width="116" height="116" rx="18" fill="url(#foodGlow)" opacity="0.85"/><rect x="407.0" y="359.0" width="58" height="39" rx="12" fill="#e9944a" opacity="0.6"/><rect x="411.0" y="363.0" width="30" height="17" rx="7" fill="#ffd9a6" opacity="0.55"/><rect x="456" y="417" width="42" height="30" rx="10" fill="#6d1f13" opacity="0.45"/><rect x="398.0" y="350.0" width="116" height="116" rx="18" fill="none" stroke="#c89b4c" stroke-width="2.2" opacity="0.6"/><ellipse cx="456.6" cy="440.5" rx="9.4" ry="6.5" fill="#7f9a4e" opacity="0.95" transform="rotate(124 456.6 440.5)"/><ellipse cx="463.8" cy="395.5" rx="9.0" ry="6.0" fill="#7f9a4e" opacity="0.95" transform="rotate(18 463.8 395.5)"/><ellipse cx="477.9" cy="401.7" rx="11.4" ry="8.9" fill="#7f9a4e" opacity="0.95" transform="rotate(133 477.9 401.7)"/><ellipse cx="445.3" cy="379.4" rx="11.6" ry="6.5" fill="#7f9a4e" opacity="0.95" transform="rotate(25 445.3 379.4)"/><ellipse cx="450.1" cy="391.0" rx="9.1" ry="6.5" fill="#7f9a4e" opacity="0.95" transform="rotate(9 450.1 391.0)"/><ellipse cx="420.9" cy="439.7" rx="8.4" ry="7.3" fill="#7f9a4e" opacity="0.95" transform="rotate(115 420.9 439.7)"/></g><g transform="rotate(2 404 340)"><rect x="352.0" y="298.0" width="104" height="104" rx="18" fill="#000" opacity="0.45" filter="url(#soft2)"/><rect x="352.0" y="288.0" width="104" height="104" rx="18" fill="#a0331f"/><rect x="352.0" y="288.0" width="104" height="104" rx="18" fill="url(#foodGlow)" opacity="0.85"/><rect x="361.0" y="297.0" width="52" height="35" rx="12" fill="#e9944a" opacity="0.6"/><rect x="365.0" y="301.0" width="27" height="16" rx="7" fill="#ffd9a6" opacity="0.55"/><rect x="404" y="348" width="37" height="27" rx="10" fill="#6d1f13" opacity="0.45"/><rect x="352.0" y="288.0" width="104" height="104" rx="18" fill="none" stroke="#c89b4c" stroke-width="2.2" opacity="0.6"/><ellipse cx="428.8" cy="370.7" rx="10.4" ry="7.3" fill="#7f9a4e" opacity="0.95" transform="rotate(115 428.8 370.7)"/><ellipse cx="394.4" cy="318.4" rx="9.9" ry="7.5" fill="#7f9a4e" opacity="0.95" transform="rotate(44 394.4 318.4)"/><ellipse cx="400.9" cy="331.5" rx="8.3" ry="8.9" fill="#7f9a4e" opacity="0.95" transform="rotate(96 400.9 331.5)"/><ellipse cx="408.4" cy="312.4" rx="9.2" ry="6.1" fill="#7f9a4e" opacity="0.95" transform="rotate(158 408.4 312.4)"/><ellipse cx="413.6" cy="340.1" rx="10.8" ry="7.3" fill="#7f9a4e" opacity="0.95" transform="rotate(93 413.6 340.1)"/><ellipse cx="437.0" cy="314.0" rx="10.7" ry="7.2" fill="#7f9a4e" opacity="0.95" transform="rotate(35 437.0 314.0)"/></g><ellipse cx="200" cy="350" rx="17" ry="11" fill="#9aa86a" opacity="0.9" transform="rotate(30 200 350)"/><ellipse cx="596" cy="588" rx="17" ry="11" fill="#9aa86a" opacity="0.9" transform="rotate(104 596 588)"/><ellipse cx="550" cy="320" rx="17" ry="11" fill="#9aa86a" opacity="0.9" transform="rotate(15 550 320)"/></svg>